<svg width="289" height="41" viewBox="0 0 289 41" fill="none" xmlns="http://www.w3.org/2000/svg">
<path d="M24.32 0.0999987L34.16 27.34C34.56 28.54 34.9 29.54 35.18 30.34C35.5 31.14 35.76 31.82 35.96 32.38C36.2 32.94 36.4 33.42 36.56 33.82C36.72 34.18 36.86 34.5 36.98 34.78C37.42 35.78 37.86 36.56 38.3 37.12C38.78 37.64 39.26 38.04 39.74 38.32C40.22 38.56 40.7 38.7 41.18 38.74C41.7 38.78 42.22 38.8 42.74 38.8L43.04 39.04L43.22 40.12L43.1 40.36C42.82 40.36 42.4 40.34 41.84 40.3C41.28 40.26 40.7 40.22 40.1 40.18C39.5 40.14 38.92 40.1 38.36 40.06C37.84 40.02 37.44 40 37.16 40H35.18C34.9 40 34.44 40.02 33.8 40.06C33.16 40.1 32.48 40.14 31.76 40.18C31.08 40.22 30.42 40.26 29.78 40.3C29.14 40.34 28.68 40.36 28.4 40.36L28.28 40.12L28.46 39.04L28.7 38.8C29.86 38.8 30.76 38.68 31.4 38.44C32.04 38.16 32.36 37.44 32.36 36.28C32.36 35.36 32.04 34.08 31.4 32.44C30.8 30.76 30.04 28.66 29.12 26.14L28.1 23.26H14.66L13.64 26.14C12.72 28.66 11.94 30.76 11.3 32.44C10.7 34.08 10.4 35.36 10.4 36.28C10.4 37.44 10.72 38.16 11.36 38.44C12 38.68 12.9 38.8 14.06 38.8L14.36 39.04L14.54 40.12L14.42 40.36C14.14 40.36 13.7 40.34 13.1 40.3C12.5 40.26 11.86 40.22 11.18 40.18C10.54 40.14 9.92 40.1 9.32 40.06C8.72 40.02 8.28 40 8 40H6.86C6.58 40 6.16 40.02 5.6 40.06C5.04 40.1 4.46 40.14 3.86 40.18C3.26 40.22 2.68 40.26 2.12 40.3C1.6 40.34 1.2 40.36 0.92 40.36L0.86 40.12L0.98 39.04L1.28 38.8C1.8 38.8 2.3 38.78 2.78 38.74C3.26 38.7 3.74 38.56 4.22 38.32C4.7 38.04 5.16 37.64 5.6 37.12C6.08 36.56 6.56 35.78 7.04 34.78C7.16 34.58 7.26 34.36 7.34 34.12C7.46 33.84 7.62 33.44 7.82 32.92C8.06 32.4 8.34 31.72 8.66 30.88C9.02 30 9.46 28.88 9.98 27.52C10.54 26.12 11.2 24.42 11.96 22.42C12.76 20.42 13.72 18 14.84 15.16C15.36 13.76 15.9 12.38 16.46 11.02C17.02 9.62 17.54 8.32 18.02 7.12C18.5 5.92 18.92 4.86 19.28 3.94C19.68 3.02 19.96 2.34 20.12 1.9L23.66 0.0999987H24.32ZM15.68 20.68H27.14L21.44 5.26L15.68 20.68ZM51.9083 40C51.6283 40 51.1683 40.02 50.5283 40.06C49.8883 40.1 49.2283 40.14 48.5483 40.18C47.8683 40.22 47.2083 40.26 46.5683 40.3C45.9283 40.34 45.4683 40.36 45.1883 40.36L45.0683 40.12L45.2483 39.04L45.5483 38.8C46.0283 38.8 46.5883 38.78 47.2283 38.74C47.8683 38.66 48.3683 38.5 48.7283 38.26C49.0483 38.02 49.3483 37.64 49.6283 37.12C49.9083 36.6 50.1083 35.82 50.2283 34.78C50.2683 34.18 50.2883 33.28 50.2883 32.08C50.3283 30.88 50.3483 29.1 50.3483 26.74V11.74C50.3483 10.94 50.3483 10.04 50.3483 9.04C50.3483 8 50.3083 6.98 50.2283 5.98C50.1483 4.9 49.9483 4.12 49.6283 3.64C49.3483 3.16 49.0483 2.8 48.7283 2.56C48.3683 2.36 47.9883 2.22 47.5883 2.14C47.2283 2.02 46.5483 1.96 45.5483 1.96L45.2483 1.72L45.0683 0.639999L45.1883 0.399998C45.4683 0.399998 45.8283 0.419998 46.2683 0.459998C46.7483 0.499997 47.2283 0.539998 47.7083 0.58C48.2283 0.619999 48.7483 0.659999 49.2683 0.699998C49.7883 0.739998 50.2683 0.759997 50.7083 0.759997H52.8683C53.3083 0.759997 53.8083 0.759997 54.3683 0.759997C54.9283 0.759997 55.4883 0.759997 56.0483 0.759997C56.6483 0.719998 57.1883 0.699998 57.6683 0.699998C58.1483 0.699998 58.5283 0.699998 58.8083 0.699998C63.1283 0.699998 66.2283 1.54 68.1083 3.22C69.9883 4.86 70.9283 7.04 70.9283 9.76C70.9283 10.96 70.7683 12.02 70.4483 12.94C70.1683 13.86 69.7683 14.68 69.2483 15.4C68.7283 16.08 68.1483 16.68 67.5083 17.2C66.8683 17.68 66.1883 18.1 65.4683 18.46C68.3883 18.98 70.6283 20.08 72.1883 21.76C73.7883 23.44 74.5883 25.76 74.5883 28.72C74.5883 30.72 74.2283 32.44 73.5083 33.88C72.7883 35.28 71.7683 36.44 70.4483 37.36C69.1683 38.24 67.6283 38.9 65.8283 39.34C64.0283 39.78 62.0483 40 59.8883 40H51.9083ZM54.6083 20.08C54.6083 21.2 54.6083 22.52 54.6083 24.04C54.6083 25.56 54.6083 27.06 54.6083 28.54C54.6483 29.98 54.6683 31.28 54.6683 32.44C54.7083 33.6 54.7483 34.38 54.7883 34.78C54.8683 35.86 55.0883 36.52 55.4483 36.76C55.8083 37 56.2883 37.12 56.8883 37.12H60.5483C61.5083 37.12 62.5483 37 63.6683 36.76C64.8283 36.52 65.9083 36.1 66.9083 35.5C67.9083 34.9 68.7483 34.06 69.4283 32.98C70.1083 31.9 70.4483 30.52 70.4483 28.84C70.4483 27.4 70.1883 26.14 69.6683 25.06C69.1483 23.94 68.4283 23.02 67.5083 22.3C66.5883 21.58 65.5083 21.04 64.2683 20.68C63.0683 20.28 61.7483 20.08 60.3083 20.08H54.6083ZM57.4283 17.86C58.7083 17.86 59.9283 17.78 61.0883 17.62C62.2483 17.46 63.2883 17.04 64.2083 16.36C65.0883 15.8 65.8083 15 66.3683 13.96C66.9283 12.88 67.2083 11.62 67.2083 10.18C67.2083 8.06 66.6083 6.44 65.4083 5.32C64.2083 4.2 62.5083 3.64 60.3083 3.64H54.9083C54.8283 4.8 54.7683 5.78 54.7283 6.58C54.7283 7.38 54.7083 8.08 54.6683 8.68C54.6283 9.28 54.6083 9.82 54.6083 10.3C54.6083 10.78 54.6083 11.24 54.6083 11.68V15.4C54.6083 16.32 54.6483 16.96 54.7283 17.32C54.8083 17.68 55.1083 17.86 55.6283 17.86H57.4283ZM100.623 0.0999987C103.743 0.0999987 106.523 0.639999 108.963 1.72C111.403 2.8 113.443 4.28 115.083 6.16C116.763 8 118.043 10.14 118.923 12.58C119.803 15.02 120.243 17.58 120.243 20.26C120.243 22.9 119.803 25.46 118.923 27.94C118.083 30.38 116.823 32.54 115.143 34.42C113.463 36.3 111.363 37.82 108.843 38.98C106.363 40.1 103.483 40.66 100.203 40.66C97.0031 40.66 94.2031 40.12 91.8031 39.04C89.4431 37.96 87.4431 36.52 85.8031 34.72C84.2031 32.88 83.0031 30.76 82.2031 28.36C81.4031 25.92 81.0031 23.36 81.0031 20.68C81.0031 17.84 81.4431 15.18 82.3231 12.7C83.2031 10.18 84.4831 8 86.1631 6.16C87.8431 4.28 89.9031 2.8 92.3431 1.72C94.7831 0.639999 97.5431 0.0999987 100.623 0.0999987ZM100.563 37.48C102.963 37.48 105.083 37.04 106.923 36.16C108.803 35.24 110.383 34 111.663 32.44C112.943 30.88 113.923 29.06 114.603 26.98C115.283 24.9 115.623 22.68 115.623 20.32C115.623 17.92 115.263 15.68 114.543 13.6C113.863 11.52 112.863 9.72 111.543 8.2C110.223 6.64 108.603 5.44 106.683 4.6C104.803 3.72 102.663 3.28 100.263 3.28C97.9031 3.28 95.8031 3.72 93.9631 4.6C92.1631 5.44 90.6431 6.62 89.4031 8.14C88.1631 9.66 87.2231 11.46 86.5831 13.54C85.9831 15.58 85.6831 17.82 85.6831 20.26C85.6831 22.94 86.0431 25.34 86.7631 27.46C87.4831 29.58 88.5031 31.38 89.8231 32.86C91.1431 34.34 92.7031 35.48 94.5031 36.28C96.3431 37.08 98.3631 37.48 100.563 37.48ZM164.933 0.639999L164.753 1.72L164.513 1.96C163.873 1.96 163.253 2 162.653 2.08C162.093 2.12 161.633 2.28 161.273 2.56C160.953 2.84 160.653 3.2 160.373 3.64C160.093 4.08 159.913 4.86 159.833 5.98C159.793 6.46 159.753 6.94 159.713 7.42C159.713 7.9 159.693 8.48 159.653 9.16C159.653 9.84 159.653 10.66 159.653 11.62C159.653 12.58 159.653 13.76 159.653 15.16V26.68C159.653 28.64 159.353 30.48 158.753 32.2C158.193 33.88 157.313 35.36 156.113 36.64C154.913 37.88 153.393 38.86 151.553 39.58C149.753 40.3 147.633 40.66 145.193 40.66C142.393 40.66 140.013 40.3 138.053 39.58C136.133 38.86 134.573 37.88 133.373 36.64C132.173 35.36 131.293 33.88 130.733 32.2C130.213 30.48 129.953 28.64 129.953 26.68V15.16C129.953 13.76 129.953 12.58 129.953 11.62C129.953 10.66 129.953 9.84 129.953 9.16C129.953 8.48 129.933 7.9 129.893 7.42C129.893 6.94 129.873 6.46 129.833 5.98C129.753 4.9 129.553 4.14 129.233 3.7C128.953 3.22 128.653 2.84 128.333 2.56C127.973 2.28 127.513 2.12 126.953 2.08C126.393 2 125.793 1.96 125.153 1.96L124.853 1.72L124.673 0.639999L124.793 0.399998C125.073 0.399998 125.533 0.419998 126.173 0.459998C126.813 0.499997 127.473 0.539998 128.153 0.58C128.833 0.619999 129.493 0.659999 130.133 0.699998C130.773 0.739998 131.233 0.759997 131.513 0.759997H132.653C132.933 0.759997 133.393 0.739998 134.033 0.699998C134.673 0.659999 135.333 0.619999 136.013 0.58C136.693 0.539998 137.353 0.499997 137.993 0.459998C138.633 0.419998 139.093 0.399998 139.373 0.399998L139.493 0.639999L139.313 1.72L139.073 1.96C138.433 1.96 137.813 2 137.213 2.08C136.653 2.12 136.193 2.28 135.833 2.56C135.513 2.84 135.213 3.2 134.933 3.64C134.653 4.08 134.473 4.86 134.393 5.98C134.353 6.54 134.313 7.06 134.273 7.54C134.273 8.02 134.253 8.58 134.213 9.22C134.213 9.86 134.213 10.64 134.213 11.56C134.213 12.48 134.213 13.66 134.213 15.1V25C134.213 29.32 135.173 32.42 137.093 34.3C139.053 36.18 141.753 37.12 145.193 37.12C148.633 37.12 151.333 36.18 153.293 34.3C155.253 32.42 156.233 29.32 156.233 25V15.1C156.233 13.66 156.233 12.48 156.233 11.56C156.233 10.64 156.213 9.86 156.173 9.22C156.173 8.58 156.153 8.02 156.113 7.54C156.113 7.06 156.093 6.54 156.053 5.98C155.973 4.86 155.773 4.08 155.453 3.64C155.173 3.2 154.873 2.84 154.553 2.56C154.233 2.28 153.773 2.12 153.173 2.08C152.613 2 152.013 1.96 151.373 1.96L151.073 1.72L150.893 0.639999L151.013 0.399998C151.293 0.399998 151.713 0.419998 152.273 0.459998C152.833 0.499997 153.413 0.539998 154.013 0.58C154.653 0.619999 155.253 0.659999 155.813 0.699998C156.373 0.739998 156.793 0.759997 157.073 0.759997H158.393C158.673 0.759997 159.113 0.739998 159.713 0.699998C160.313 0.659999 160.933 0.619999 161.573 0.58C162.253 0.539998 162.893 0.499997 163.493 0.459998C164.093 0.419998 164.533 0.399998 164.813 0.399998L164.933 0.639999ZM192.333 40.36C192.053 40.36 191.613 40.34 191.013 40.3C190.413 40.26 189.773 40.22 189.093 40.18C188.413 40.14 187.773 40.1 187.173 40.06C186.573 40.02 186.133 40 185.853 40H182.433C182.153 40 181.713 40.02 181.113 40.06C180.513 40.1 179.873 40.14 179.193 40.18C178.553 40.22 177.933 40.26 177.333 40.3C176.733 40.34 176.293 40.36 176.013 40.36L175.893 40.12L176.073 39.04L176.373 38.8C177.013 38.8 177.733 38.78 178.533 38.74C179.333 38.66 179.893 38.48 180.213 38.2C180.533 37.92 180.873 37.56 181.233 37.12C181.593 36.68 181.813 35.9 181.893 34.78C181.933 34.5 181.953 34.18 181.953 33.82C181.993 33.42 182.013 32.94 182.013 32.38C182.053 31.82 182.073 31.14 182.073 30.34C182.073 29.54 182.073 28.54 182.073 27.34V15.16C182.073 12.56 182.053 10.26 182.013 8.26C181.973 6.22 181.933 4.68 181.893 3.64H181.233C179.233 3.64 177.593 3.66 176.313 3.7C175.033 3.7 173.993 3.74 173.193 3.82C172.433 3.86 171.853 3.92 171.453 4C171.093 4.08 170.833 4.18 170.673 4.3C169.793 4.78 169.253 5.82 169.053 7.42L168.813 7.66H167.433L167.853 0.819997L168.093 0.279996L168.453 0.0999987C168.773 0.219997 169.473 0.339997 170.553 0.459998C171.633 0.539999 172.813 0.599999 174.093 0.639999C175.373 0.679998 176.593 0.719998 177.753 0.759997C178.953 0.759997 179.813 0.759997 180.333 0.759997H187.893C188.413 0.759997 189.253 0.759997 190.413 0.759997C191.613 0.719998 192.853 0.679998 194.133 0.639999C195.413 0.599999 196.593 0.539999 197.673 0.459998C198.753 0.339997 199.453 0.219997 199.773 0.0999987L200.133 0.279996L200.373 0.819997L200.853 7.66H199.413L199.173 7.42C198.973 5.82 198.433 4.78 197.553 4.3C197.393 4.18 197.113 4.08 196.713 4C196.353 3.92 195.773 3.86 194.973 3.82C194.213 3.74 193.193 3.7 191.913 3.7C190.633 3.66 189.013 3.64 187.053 3.64H186.393C186.353 4.8 186.313 6.32 186.273 8.2C186.273 10.08 186.273 12.38 186.273 15.1V26.14C186.273 27.58 186.273 28.76 186.273 29.68C186.273 30.56 186.273 31.3 186.273 31.9C186.313 32.5 186.333 33.02 186.333 33.46C186.373 33.86 186.413 34.3 186.453 34.78C186.533 35.9 186.753 36.68 187.113 37.12C187.473 37.56 187.813 37.92 188.133 38.2C188.453 38.48 189.013 38.66 189.813 38.74C190.613 38.78 191.333 38.8 191.973 38.8L192.273 39.04L192.453 40.12L192.333 40.36ZM256.281 0.639999L256.101 1.72L255.861 1.96C255.221 1.96 254.601 2 254.001 2.08C253.441 2.12 252.981 2.28 252.621 2.56C252.301 2.84 252.001 3.2 251.721 3.64C251.441 4.08 251.261 4.86 251.181 5.98C251.141 6.46 251.101 6.94 251.061 7.42C251.061 7.9 251.041 8.48 251.001 9.16C251.001 9.84 251.001 10.66 251.001 11.62C251.001 12.58 251.001 13.76 251.001 15.16V26.68C251.001 28.64 250.701 30.48 250.101 32.2C249.541 33.88 248.661 35.36 247.461 36.64C246.261 37.88 244.741 38.86 242.901 39.58C241.101 40.3 238.981 40.66 236.541 40.66C233.741 40.66 231.361 40.3 229.401 39.58C227.481 38.86 225.921 37.88 224.721 36.64C223.521 35.36 222.641 33.88 222.081 32.2C221.561 30.48 221.301 28.64 221.301 26.68V15.16C221.301 13.76 221.301 12.58 221.301 11.62C221.301 10.66 221.301 9.84 221.301 9.16C221.301 8.48 221.281 7.9 221.241 7.42C221.241 6.94 221.221 6.46 221.181 5.98C221.101 4.9 220.901 4.14 220.581 3.7C220.301 3.22 220.001 2.84 219.681 2.56C219.321 2.28 218.861 2.12 218.301 2.08C217.741 2 217.141 1.96 216.501 1.96L216.201 1.72L216.021 0.639999L216.141 0.399998C216.421 0.399998 216.881 0.419998 217.521 0.459998C218.161 0.499997 218.821 0.539998 219.501 0.58C220.181 0.619999 220.841 0.659999 221.481 0.699998C222.121 0.739998 222.581 0.759997 222.861 0.759997H224.001C224.281 0.759997 224.741 0.739998 225.381 0.699998C226.021 0.659999 226.681 0.619999 227.361 0.58C228.041 0.539998 228.701 0.499997 229.341 0.459998C229.981 0.419998 230.441 0.399998 230.721 0.399998L230.841 0.639999L230.661 1.72L230.421 1.96C229.781 1.96 229.161 2 228.561 2.08C228.001 2.12 227.541 2.28 227.181 2.56C226.861 2.84 226.561 3.2 226.281 3.64C226.001 4.08 225.821 4.86 225.741 5.98C225.701 6.54 225.661 7.06 225.621 7.54C225.621 8.02 225.601 8.58 225.561 9.22C225.561 9.86 225.561 10.64 225.561 11.56C225.561 12.48 225.561 13.66 225.561 15.1V25C225.561 29.32 226.521 32.42 228.441 34.3C230.401 36.18 233.101 37.12 236.541 37.12C239.981 37.12 242.681 36.18 244.641 34.3C246.601 32.42 247.581 29.32 247.581 25V15.1C247.581 13.66 247.581 12.48 247.581 11.56C247.581 10.64 247.561 9.86 247.521 9.22C247.521 8.58 247.501 8.02 247.461 7.54C247.461 7.06 247.441 6.54 247.401 5.98C247.321 4.86 247.121 4.08 246.801 3.64C246.521 3.2 246.221 2.84 245.901 2.56C245.581 2.28 245.121 2.12 244.521 2.08C243.961 2 243.361 1.96 242.721 1.96L242.421 1.72L242.241 0.639999L242.361 0.399998C242.641 0.399998 243.061 0.419998 243.621 0.459998C244.181 0.499997 244.761 0.539998 245.361 0.58C246.001 0.619999 246.601 0.659999 247.161 0.699998C247.721 0.739998 248.141 0.759997 248.421 0.759997H249.741C250.021 0.759997 250.461 0.739998 251.061 0.699998C251.661 0.659999 252.281 0.619999 252.921 0.58C253.601 0.539998 254.241 0.499997 254.841 0.459998C255.441 0.419998 255.881 0.399998 256.161 0.399998L256.281 0.639999ZM266.1 9.52C266.1 10.64 266.3 11.58 266.7 12.34C267.1 13.06 267.7 13.7 268.5 14.26C269.34 14.82 270.38 15.34 271.62 15.82C272.9 16.26 274.4 16.74 276.12 17.26C277.6 17.74 279.06 18.28 280.5 18.88C281.94 19.48 283.22 20.26 284.34 21.22C285.5 22.14 286.42 23.28 287.1 24.64C287.78 25.96 288.12 27.58 288.12 29.5C288.12 31.54 287.72 33.28 286.92 34.72C286.12 36.12 285.06 37.26 283.74 38.14C282.42 39.02 280.88 39.66 279.12 40.06C277.4 40.46 275.58 40.66 273.66 40.66C271.18 40.66 268.92 40.38 266.88 39.82C264.84 39.26 263 38.56 261.36 37.72L261.12 36.94L262.14 30.52H263.64L263.94 30.88C264.14 33.32 265.12 35.12 266.88 36.28C268.64 37.4 271.04 37.96 274.08 37.96C277.2 37.96 279.54 37.26 281.1 35.86C282.7 34.42 283.5 32.56 283.5 30.28C283.5 28.88 283.2 27.72 282.6 26.8C282 25.84 281.2 25.04 280.2 24.4C279.24 23.72 278.12 23.16 276.84 22.72C275.6 22.28 274.34 21.84 273.06 21.4C271.46 20.88 269.96 20.32 268.56 19.72C267.2 19.08 266 18.34 264.96 17.5C263.96 16.66 263.16 15.66 262.56 14.5C262 13.34 261.72 11.96 261.72 10.36C261.72 8.48 262.04 6.9 262.68 5.62C263.36 4.3 264.28 3.24 265.44 2.44C266.6 1.6 267.94 0.999999 269.46 0.639999C271.02 0.279999 272.7 0.0999987 274.5 0.0999987C276.66 0.0999987 278.7 0.299999 280.62 0.699998C282.54 1.1 284.1 1.58 285.3 2.14L285.54 2.8L284.7 8.14H283.02L282.72 7.84C282.64 6.8 282.3 5.96 281.7 5.32C281.1 4.68 280.38 4.18 279.54 3.82C278.74 3.46 277.86 3.22 276.9 3.1C275.98 2.98 275.16 2.92 274.44 2.92C271.84 2.92 269.8 3.5 268.32 4.66C266.84 5.78 266.1 7.4 266.1 9.52Z" fill="white"/>
</svg>
