<svg width="227" height="41" viewBox="0 0 227 41" fill="none" xmlns="http://www.w3.org/2000/svg">
<path d="M6.04664 5.98C5.96664 4.86 5.76664 4.08 5.44664 3.64C5.16664 3.2 4.86664 2.84 4.54664 2.56C4.18664 2.28 3.72664 2.12 3.16664 2.08C2.60664 2 2.00664 1.96 1.36664 1.96L1.06664 1.72L0.886641 0.639999L1.00664 0.399998C1.28664 0.399998 1.74664 0.419998 2.38664 0.459998C3.02664 0.499997 3.68664 0.539998 4.36664 0.58C5.04664 0.619999 5.70664 0.659999 6.34664 0.699998C6.98664 0.739998 7.44664 0.759997 7.72664 0.759997H18.1666C18.6866 0.759997 19.4666 0.759997 20.5066 0.759997C21.5866 0.719998 22.6666 0.679998 23.7466 0.639999C24.8266 0.599999 25.7866 0.58 26.6266 0.58C27.5066 0.539998 28.0466 0.519997 28.2466 0.519997L28.5466 1.12L28.3066 7.66H26.8066L26.5666 7.42C26.4866 6.5 26.3666 5.78 26.2066 5.26C26.0866 4.74 25.6866 4.36 25.0066 4.12C24.3666 3.88 23.3866 3.74 22.0666 3.7C20.7466 3.66 18.8866 3.64 16.4866 3.64H10.7266L10.6066 5.98C10.5666 6.54 10.5266 7.06 10.4866 7.54C10.4866 8.02 10.4666 8.58 10.4266 9.22C10.4266 9.86 10.4266 10.64 10.4266 11.56C10.4266 12.48 10.4266 14.64 10.4266 18.04C11.6266 18 12.8266 17.98 14.0266 17.98C15.2266 17.98 16.3066 17.96 17.2666 17.92C18.2666 17.88 19.1066 17.8 19.7866 17.68C20.4666 17.52 20.9266 17.3 21.1666 17.02C21.4866 16.7 21.7666 16.38 22.0066 16.06C22.2466 15.74 22.3666 15.28 22.3666 14.68L22.6666 14.38L23.6866 14.26L23.9266 14.38C23.8466 15.3 23.7666 16.1 23.6866 16.78C23.6466 17.46 23.6266 18.24 23.6266 19.12C23.6266 20.08 23.6466 20.98 23.6866 21.82C23.7666 22.62 23.8466 23.5 23.9266 24.46L23.6866 24.58L22.6066 24.46L22.3666 24.28C22.3666 23.64 22.2466 23.06 22.0066 22.54C21.7666 21.98 21.4866 21.52 21.1666 21.16C20.9266 20.92 20.4666 20.74 19.7866 20.62C19.1066 20.5 18.2866 20.42 17.3266 20.38C16.3666 20.34 15.2866 20.32 14.0866 20.32C12.8866 20.32 11.6666 20.32 10.4266 20.32V26.14C10.4266 27.58 10.4266 28.76 10.4266 29.68C10.4266 30.56 10.4266 31.3 10.4266 31.9C10.4666 32.5 10.4866 33.02 10.4866 33.46C10.5266 33.86 10.5666 34.3 10.6066 34.78C10.6866 35.9 10.8866 36.68 11.2066 37.12C11.5666 37.56 11.9066 37.92 12.2266 38.2C12.5866 38.48 13.1066 38.66 13.7866 38.74C14.5066 38.78 15.1866 38.8 15.8266 38.8L16.1266 39.04L16.3066 40.12L16.1866 40.36C15.9066 40.36 15.4066 40.34 14.6866 40.3C14.0066 40.26 13.2866 40.22 12.5266 40.18C11.7666 40.14 11.0266 40.1 10.3066 40.06C9.62664 40.02 9.14664 40 8.86664 40H7.72664C7.44664 40 6.98664 40.02 6.34664 40.06C5.70664 40.1 5.04664 40.14 4.36664 40.18C3.68664 40.22 3.02664 40.26 2.38664 40.3C1.74664 40.34 1.28664 40.36 1.00664 40.36L0.886641 40.12L1.06664 39.04L1.36664 38.8C2.00664 38.8 2.60664 38.78 3.16664 38.74C3.72664 38.66 4.18664 38.48 4.54664 38.2C4.86664 37.92 5.16664 37.56 5.44664 37.12C5.76664 36.68 5.96664 35.9 6.04664 34.78C6.04664 34.5 6.04664 34.18 6.04664 33.82C6.08664 33.42 6.10664 32.94 6.10664 32.38C6.14664 31.82 6.16664 31.14 6.16664 30.34C6.16664 29.54 6.16664 28.54 6.16664 27.34V15.16C6.16664 13.76 6.16664 12.58 6.16664 11.62C6.16664 10.66 6.14664 9.84 6.10664 9.16C6.10664 8.48 6.08664 7.9 6.04664 7.42C6.04664 6.94 6.04664 6.46 6.04664 5.98ZM47.4645 0.639999L47.2845 1.72L47.0445 1.96C46.4045 1.96 45.7845 2 45.1845 2.08C44.6245 2.12 44.1645 2.28 43.8045 2.56C43.4845 2.84 43.1845 3.2 42.9045 3.64C42.6245 4.08 42.4445 4.86 42.3645 5.98C42.3245 6.54 42.2845 7.06 42.2445 7.54C42.2445 8.02 42.2245 8.58 42.1845 9.22C42.1845 9.86 42.1845 10.64 42.1845 11.56C42.1845 12.48 42.1845 13.66 42.1845 15.1V26.14C42.1845 27.58 42.1845 28.76 42.1845 29.68C42.1845 30.56 42.1845 31.3 42.1845 31.9C42.2245 32.5 42.2445 33.02 42.2445 33.46C42.2845 33.86 42.3245 34.3 42.3645 34.78C42.4445 35.9 42.6245 36.68 42.9045 37.12C43.1845 37.56 43.4845 37.92 43.8045 38.2C44.1645 38.48 44.6245 38.66 45.1845 38.74C45.7845 38.78 46.4045 38.8 47.0445 38.8L47.2845 39.04L47.4645 40.12L47.3445 40.36C47.0645 40.36 46.6045 40.34 45.9645 40.3C45.3245 40.26 44.6645 40.22 43.9845 40.18C43.3045 40.14 42.6445 40.1 42.0045 40.06C41.3645 40.02 40.9045 40 40.6245 40H39.4845C39.2045 40 38.7445 40.02 38.1045 40.06C37.4645 40.1 36.8045 40.14 36.1245 40.18C35.4445 40.22 34.7845 40.26 34.1445 40.3C33.5045 40.34 33.0445 40.36 32.7645 40.36L32.6445 40.12L32.8245 39.04L33.1245 38.8C33.7645 38.8 34.3645 38.78 34.9245 38.74C35.4845 38.66 35.9445 38.48 36.3045 38.2C36.6245 37.92 36.9245 37.56 37.2045 37.12C37.5245 36.68 37.7245 35.9 37.8045 34.78C37.8045 34.5 37.8045 34.18 37.8045 33.82C37.8445 33.42 37.8645 32.94 37.8645 32.38C37.9045 31.82 37.9245 31.14 37.9245 30.34C37.9245 29.54 37.9245 28.54 37.9245 27.34V15.16C37.9245 13.76 37.9245 12.58 37.9245 11.62C37.9245 10.66 37.9045 9.84 37.8645 9.16C37.8645 8.48 37.8445 7.9 37.8045 7.42C37.8045 6.94 37.7845 6.46 37.7445 5.98C37.6645 4.94 37.4845 4.18 37.2045 3.7C36.9245 3.22 36.6245 2.84 36.3045 2.56C35.9445 2.28 35.4845 2.12 34.9245 2.08C34.3645 2 33.7645 1.96 33.1245 1.96L32.8245 1.72L32.6445 0.639999L32.7645 0.399998C33.0445 0.399998 33.5045 0.419998 34.1445 0.459998C34.7845 0.499997 35.4445 0.539998 36.1245 0.58C36.8045 0.619999 37.4645 0.659999 38.1045 0.699998C38.7445 0.739998 39.2045 0.759997 39.4845 0.759997H40.6245C40.9045 0.759997 41.3645 0.739998 42.0045 0.699998C42.6445 0.659999 43.3045 0.619999 43.9845 0.58C44.6645 0.539998 45.3245 0.499997 45.9645 0.459998C46.6045 0.419998 47.0645 0.399998 47.3445 0.399998L47.4645 0.639999ZM92.5249 0.639999L92.4049 1.72L92.1049 1.96C91.4649 1.96 90.8449 2 90.2449 2.08C89.6849 2.12 89.2449 2.28 88.9249 2.56C88.6049 2.84 88.3049 3.2 88.0249 3.64C87.7849 4.08 87.6249 4.86 87.5449 5.98C87.5049 6.54 87.4649 7.06 87.4249 7.54C87.4249 8.02 87.4049 8.58 87.3649 9.22C87.3649 9.86 87.3649 10.64 87.3649 11.56C87.3649 12.48 87.3649 13.66 87.3649 15.1V25.66C87.3649 27.9 87.3649 29.74 87.3649 31.18C87.4049 32.62 87.4249 33.86 87.4249 34.9C87.4649 35.9 87.5049 36.8 87.5449 37.6C87.6249 38.4 87.7049 39.28 87.7849 40.24L87.3049 40.54L83.5849 40.3L82.9849 39.58L61.6249 7.6C61.6249 8 61.6049 8.4 61.5649 8.8C61.5649 9.2 61.5649 9.7 61.5649 10.3C61.5649 10.86 61.5649 11.52 61.5649 12.28C61.5649 13.04 61.5649 13.98 61.5649 15.1V26.14C61.5649 26.62 61.5649 27.26 61.5649 28.06C61.5649 28.82 61.5649 29.62 61.5649 30.46C61.6049 31.3 61.6249 32.12 61.6249 32.92C61.6649 33.68 61.7049 34.3 61.7449 34.78C61.8249 35.78 61.9849 36.54 62.2249 37.06C62.5049 37.54 62.8449 37.92 63.2449 38.2C63.5649 38.44 63.9849 38.6 64.5049 38.68C65.0249 38.76 65.6849 38.8 66.4849 38.8L66.7849 39.04L66.9649 40.12L66.8449 40.36C66.5649 40.36 66.1249 40.34 65.5249 40.3C64.9649 40.26 64.3649 40.22 63.7249 40.18C63.0849 40.14 62.4649 40.1 61.8649 40.06C61.3049 40.02 60.8849 40 60.6049 40H59.4649C59.1849 40 58.7249 40.02 58.0849 40.06C57.4449 40.1 56.7849 40.14 56.1049 40.18C55.4249 40.22 54.7649 40.26 54.1249 40.3C53.4849 40.34 53.0249 40.36 52.7449 40.36L52.6249 40.12L52.8049 39.04L53.1049 38.8C53.8249 38.8 54.4249 38.78 54.9049 38.74C55.4249 38.66 55.8849 38.48 56.2849 38.2C56.5649 38 56.8449 37.68 57.1249 37.24C57.4449 36.76 57.6649 35.94 57.7849 34.78C57.8249 34.5 57.8449 34.18 57.8449 33.82C57.8849 33.42 57.9049 32.94 57.9049 32.38C57.9049 31.82 57.9049 31.14 57.9049 30.34C57.9049 29.54 57.9049 28.54 57.9049 27.34V15.16C57.9049 13.76 57.9049 12.58 57.9049 11.62C57.9049 10.66 57.9049 9.84 57.9049 9.16C57.9049 8.48 57.8849 7.9 57.8449 7.42C57.8449 6.94 57.8249 6.46 57.7849 5.98C57.7049 5.14 57.5249 4.44 57.2449 3.88C56.9649 3.28 56.6449 2.84 56.2849 2.56C55.9249 2.28 55.4649 2.12 54.9049 2.08C54.3849 2 53.7849 1.96 53.1049 1.96L52.8049 1.72L52.6249 0.639999L52.7449 0.399998C53.0249 0.399998 53.4249 0.419998 53.9449 0.459998C54.5049 0.499997 55.0649 0.539998 55.6249 0.58C56.1849 0.619999 56.7249 0.659999 57.2449 0.699998C57.8049 0.739998 58.2249 0.759997 58.5049 0.759997H60.6049C60.9249 0.759997 61.3649 0.739998 61.9249 0.699998C62.5249 0.659999 63.0049 0.599998 63.3649 0.519997L63.6649 0.699998C63.8249 1.26 64.1449 2.04 64.6249 3.04C65.1449 4 65.7449 5.08 66.4249 6.28C67.1449 7.48 67.9049 8.76 68.7049 10.12C69.5449 11.48 70.3849 12.82 71.2249 14.14C74.2649 19.02 76.9049 23 79.1449 26.08C81.4249 29.16 82.8849 31.16 83.5249 32.08C83.5249 31.8 83.5249 31.54 83.5249 31.3C83.5649 31.06 83.5849 30.78 83.5849 30.46C83.5849 30.14 83.5849 29.74 83.5849 29.26C83.5849 28.78 83.5849 28.14 83.5849 27.34V15.16C83.5849 13.76 83.5849 12.58 83.5849 11.62C83.5849 10.66 83.5649 9.84 83.5249 9.16C83.5249 8.48 83.5049 7.9 83.4649 7.42C83.4649 6.94 83.4449 6.46 83.4049 5.98C83.3249 4.86 83.1449 4.08 82.8649 3.64C82.5849 3.2 82.2849 2.84 81.9649 2.56C81.6049 2.28 81.1249 2.12 80.5249 2.08C79.9649 2 79.3649 1.96 78.7249 1.96L78.4849 1.72L78.3049 0.639999L78.4249 0.399998C78.7049 0.399998 79.1049 0.419998 79.6249 0.459998C80.1449 0.499997 80.6649 0.539998 81.1849 0.58C81.7449 0.619999 82.2849 0.659999 82.8049 0.699998C83.3249 0.739998 83.7249 0.759997 84.0049 0.759997H86.8249C87.1049 0.759997 87.5049 0.759997 88.0249 0.759997C88.5449 0.719998 89.0849 0.679998 89.6449 0.639999C90.2049 0.599999 90.7449 0.559999 91.2649 0.519997C91.7849 0.479997 92.1849 0.439998 92.4649 0.399998L92.5249 0.639999ZM102.551 5.98C102.471 4.98 102.291 4.24 102.011 3.76C101.731 3.24 101.411 2.84 101.051 2.56C100.691 2.36 100.311 2.22 99.9105 2.14C99.5505 2.02 98.8705 1.96 97.8705 1.96L97.5705 1.72L97.3905 0.639999L97.5105 0.399998C97.7905 0.399998 98.1905 0.419998 98.7105 0.459998C99.2305 0.499997 99.7905 0.539998 100.391 0.58C100.991 0.619999 101.571 0.659999 102.131 0.699998C102.731 0.739998 103.251 0.759997 103.691 0.759997H107.111C107.631 0.759997 108.271 0.759997 109.031 0.759997C109.831 0.719998 110.631 0.679998 111.431 0.639999C112.271 0.599999 113.071 0.58 113.831 0.58C114.631 0.539998 115.271 0.519997 115.751 0.519997C118.871 0.519997 121.651 1.06 124.091 2.14C126.571 3.18 128.651 4.6 130.331 6.4C132.011 8.2 133.291 10.3 134.171 12.7C135.091 15.1 135.551 17.64 135.551 20.32C135.551 22.96 135.111 25.48 134.231 27.88C133.391 30.24 132.131 32.34 130.451 34.18C128.771 35.98 126.671 37.42 124.151 38.5C121.631 39.58 118.711 40.12 115.391 40.12C115.031 40.12 114.491 40.1 113.771 40.06C113.051 40.06 112.291 40.06 111.491 40.06C110.691 40.06 109.911 40.04 109.151 40C108.431 40 107.851 40 107.411 40H104.231C103.951 40 103.491 40.02 102.851 40.06C102.211 40.1 101.551 40.14 100.871 40.18C100.191 40.22 99.5305 40.26 98.8905 40.3C98.2505 40.34 97.7905 40.36 97.5105 40.36L97.3905 40.12L97.5705 39.04L97.8705 38.8C98.3505 38.8 98.9105 38.78 99.5505 38.74C100.191 38.66 100.691 38.5 101.051 38.26C101.371 38.02 101.671 37.64 101.951 37.12C102.231 36.6 102.431 35.82 102.551 34.78C102.551 34.5 102.551 34.18 102.551 33.82C102.591 33.42 102.611 32.94 102.611 32.38C102.651 31.82 102.671 31.14 102.671 30.34C102.671 29.54 102.671 28.54 102.671 27.34V15.16C102.671 14.76 102.671 14.16 102.671 13.36C102.671 12.52 102.671 11.64 102.671 10.72C102.671 9.8 102.651 8.9 102.611 8.02C102.611 7.14 102.591 6.46 102.551 5.98ZM115.811 37.12C118.211 37.12 120.331 36.68 122.171 35.8C124.011 34.92 125.551 33.74 126.791 32.26C128.071 30.74 129.031 28.96 129.671 26.92C130.351 24.88 130.691 22.68 130.691 20.32C130.691 17.92 130.351 15.7 129.671 13.66C128.991 11.62 127.991 9.86 126.671 8.38C125.391 6.9 123.811 5.74 121.931 4.9C120.051 4.06 117.911 3.64 115.511 3.64H107.231C107.151 4.8 107.091 5.78 107.051 6.58C107.051 7.34 107.031 8.12 106.991 8.92C106.951 9.72 106.931 10.6 106.931 11.56C106.931 12.48 106.931 13.66 106.931 15.1V26.14C106.931 28.54 106.931 30.42 106.931 31.78C106.971 33.1 107.031 34.1 107.111 34.78C107.231 35.82 107.491 36.48 107.891 36.76C108.291 37 109.011 37.12 110.051 37.12H115.811ZM195.107 0.639999L194.927 1.72L194.687 1.96C194.047 1.96 193.427 2 192.827 2.08C192.267 2.12 191.807 2.28 191.447 2.56C191.127 2.84 190.827 3.2 190.547 3.64C190.267 4.08 190.087 4.86 190.007 5.98C189.967 6.46 189.927 6.94 189.887 7.42C189.887 7.9 189.867 8.48 189.827 9.16C189.827 9.84 189.827 10.66 189.827 11.62C189.827 12.58 189.827 13.76 189.827 15.16V26.68C189.827 28.64 189.527 30.48 188.927 32.2C188.367 33.88 187.487 35.36 186.287 36.64C185.087 37.88 183.567 38.86 181.727 39.58C179.927 40.3 177.807 40.66 175.367 40.66C172.567 40.66 170.187 40.3 168.227 39.58C166.307 38.86 164.747 37.88 163.547 36.64C162.347 35.36 161.467 33.88 160.907 32.2C160.387 30.48 160.127 28.64 160.127 26.68V15.16C160.127 13.76 160.127 12.58 160.127 11.62C160.127 10.66 160.127 9.84 160.127 9.16C160.127 8.48 160.107 7.9 160.067 7.42C160.067 6.94 160.047 6.46 160.007 5.98C159.927 4.9 159.727 4.14 159.407 3.7C159.127 3.22 158.827 2.84 158.507 2.56C158.147 2.28 157.687 2.12 157.127 2.08C156.567 2 155.967 1.96 155.327 1.96L155.027 1.72L154.847 0.639999L154.967 0.399998C155.247 0.399998 155.707 0.419998 156.347 0.459998C156.987 0.499997 157.647 0.539998 158.327 0.58C159.007 0.619999 159.667 0.659999 160.307 0.699998C160.947 0.739998 161.407 0.759997 161.687 0.759997H162.827C163.107 0.759997 163.567 0.739998 164.207 0.699998C164.847 0.659999 165.507 0.619999 166.187 0.58C166.867 0.539998 167.527 0.499997 168.167 0.459998C168.807 0.419998 169.267 0.399998 169.547 0.399998L169.667 0.639999L169.487 1.72L169.247 1.96C168.607 1.96 167.987 2 167.387 2.08C166.827 2.12 166.367 2.28 166.007 2.56C165.687 2.84 165.387 3.2 165.107 3.64C164.827 4.08 164.647 4.86 164.567 5.98C164.527 6.54 164.487 7.06 164.447 7.54C164.447 8.02 164.427 8.58 164.387 9.22C164.387 9.86 164.387 10.64 164.387 11.56C164.387 12.48 164.387 13.66 164.387 15.1V25C164.387 29.32 165.347 32.42 167.267 34.3C169.227 36.18 171.927 37.12 175.367 37.12C178.807 37.12 181.507 36.18 183.467 34.3C185.427 32.42 186.407 29.32 186.407 25V15.1C186.407 13.66 186.407 12.48 186.407 11.56C186.407 10.64 186.387 9.86 186.347 9.22C186.347 8.58 186.327 8.02 186.287 7.54C186.287 7.06 186.267 6.54 186.227 5.98C186.147 4.86 185.947 4.08 185.627 3.64C185.347 3.2 185.047 2.84 184.727 2.56C184.407 2.28 183.947 2.12 183.347 2.08C182.787 2 182.187 1.96 181.547 1.96L181.247 1.72L181.067 0.639999L181.187 0.399998C181.467 0.399998 181.887 0.419998 182.447 0.459998C183.007 0.499997 183.587 0.539998 184.187 0.58C184.827 0.619999 185.427 0.659999 185.987 0.699998C186.547 0.739998 186.967 0.759997 187.247 0.759997H188.567C188.847 0.759997 189.287 0.739998 189.887 0.699998C190.487 0.659999 191.107 0.619999 191.747 0.58C192.427 0.539998 193.067 0.499997 193.667 0.459998C194.267 0.419998 194.707 0.399998 194.987 0.399998L195.107 0.639999ZM204.926 9.52C204.926 10.64 205.126 11.58 205.526 12.34C205.926 13.06 206.526 13.7 207.326 14.26C208.166 14.82 209.206 15.34 210.446 15.82C211.726 16.26 213.226 16.74 214.946 17.26C216.426 17.74 217.886 18.28 219.326 18.88C220.766 19.48 222.046 20.26 223.166 21.22C224.326 22.14 225.246 23.28 225.926 24.64C226.606 25.96 226.946 27.58 226.946 29.5C226.946 31.54 226.546 33.28 225.746 34.72C224.946 36.12 223.886 37.26 222.566 38.14C221.246 39.02 219.706 39.66 217.946 40.06C216.226 40.46 214.406 40.66 212.486 40.66C210.006 40.66 207.746 40.38 205.706 39.82C203.666 39.26 201.826 38.56 200.186 37.72L199.946 36.94L200.966 30.52H202.466L202.766 30.88C202.966 33.32 203.946 35.12 205.706 36.28C207.466 37.4 209.866 37.96 212.906 37.96C216.026 37.96 218.366 37.26 219.926 35.86C221.526 34.42 222.326 32.56 222.326 30.28C222.326 28.88 222.026 27.72 221.426 26.8C220.826 25.84 220.026 25.04 219.026 24.4C218.066 23.72 216.946 23.16 215.666 22.72C214.426 22.28 213.166 21.84 211.886 21.4C210.286 20.88 208.786 20.32 207.386 19.72C206.026 19.08 204.826 18.34 203.786 17.5C202.786 16.66 201.986 15.66 201.386 14.5C200.826 13.34 200.546 11.96 200.546 10.36C200.546 8.48 200.866 6.9 201.506 5.62C202.186 4.3 203.106 3.24 204.266 2.44C205.426 1.6 206.766 0.999999 208.286 0.639999C209.846 0.279999 211.526 0.0999987 213.326 0.0999987C215.486 0.0999987 217.526 0.299999 219.446 0.699998C221.366 1.1 222.926 1.58 224.126 2.14L224.366 2.8L223.526 8.14H221.846L221.546 7.84C221.466 6.8 221.126 5.96 220.526 5.32C219.926 4.68 219.206 4.18 218.366 3.82C217.566 3.46 216.686 3.22 215.726 3.1C214.806 2.98 213.986 2.92 213.266 2.92C210.666 2.92 208.626 3.5 207.146 4.66C205.666 5.78 204.926 7.4 204.926 9.52Z" fill="white"/>
</svg>
