<svg width="496" height="49" viewBox="0 0 496 49" fill="none" xmlns="http://www.w3.org/2000/svg">
<path d="M6.65625 8.616C6.56025 7.8 6.36825 7.008 6.08025 6.24C5.84025 5.424 5.45625 4.824 4.92825 4.44C4.54425 4.2 4.06425 4.032 3.48825 3.936C2.91225 3.84 2.12025 3.792 1.11225 3.792L0.75225 3.504L0.53625 0.767999L0.68025 0.479998C1.11225 0.527997 1.68825 0.575997 2.40825 0.623996C3.17625 0.671999 3.94425 0.719999 4.71225 0.767999C5.52825 0.815998 6.29625 0.863997 7.01625 0.911997C7.73625 0.911997 8.31225 0.911997 8.74425 0.911997H12.9923C13.4243 0.911997 13.9763 0.911997 14.6483 0.911997C15.3683 0.863997 16.1123 0.815998 16.8803 0.767999C17.6963 0.719999 18.4643 0.671999 19.1843 0.623996C19.9523 0.575997 20.5763 0.527997 21.0563 0.479998L21.2003 0.767999L20.9843 3.504L20.6963 3.792C19.4963 3.792 18.6083 3.864 18.0323 4.008C17.5043 4.104 17.0723 4.272 16.7363 4.512C15.7283 5.184 15.1523 6.552 15.0083 8.616C14.9603 9.096 14.9123 9.6 14.8643 10.128C14.8643 10.608 14.8643 11.256 14.8643 12.072C14.8643 12.84 14.8643 13.824 14.8643 15.024C14.8643 16.224 14.8643 17.736 14.8643 19.56V29.208C14.8643 31.08 14.8643 32.616 14.8643 33.816C14.8643 34.968 14.8643 35.952 14.8643 36.768C14.9123 37.536 14.9363 38.232 14.9363 38.856C14.9843 39.432 15.0563 40.128 15.1523 40.944C15.2003 41.904 15.7523 42.384 16.8083 42.384H23.5043C25.0883 42.384 26.3363 42.36 27.2483 42.312C28.2083 42.216 28.9523 42.024 29.4803 41.736C30.0083 41.4 30.4163 40.944 30.7043 40.368C30.9923 39.792 31.2563 39 31.4963 37.992L31.7123 37.704H35.0243L33.7283 47.568L33.1523 48.288C32.7683 48.24 32.1683 48.192 31.3523 48.144C30.5363 48.144 29.6723 48.12 28.7603 48.072C27.8483 48.072 26.9363 48.048 26.0243 48C25.1603 48 24.4883 48 24.0083 48H8.74425C8.40825 48 7.85625 48 7.08825 48C6.36825 48.048 5.60025 48.096 4.78425 48.144C3.96825 48.192 3.17625 48.24 2.40825 48.288C1.64025 48.336 1.06425 48.384 0.68025 48.432L0.53625 48.144L0.75225 45.408L1.11225 45.12C2.93625 45.12 4.18425 44.856 4.85625 44.328C5.24025 43.992 5.60025 43.464 5.93625 42.744C6.32025 42.024 6.56025 41.184 6.65625 40.224C6.70425 39.744 6.72825 39.096 6.72825 38.28C6.77625 37.416 6.80025 36.528 6.80025 35.616C6.84825 34.704 6.87225 33.864 6.87225 33.096C6.87225 32.28 6.87225 31.704 6.87225 31.368V19.632C6.87225 16.992 6.84825 14.688 6.80025 12.72C6.80025 10.704 6.75225 9.336 6.65625 8.616ZM63.5576 0.119998L75.9416 32.808C76.3736 34.008 76.7576 35.016 77.0936 35.832C77.4296 36.648 77.6936 37.344 77.8856 37.92C78.1256 38.496 78.3176 38.976 78.4616 39.36C78.6536 39.696 78.8216 40.008 78.9656 40.296C79.5416 41.496 80.1176 42.432 80.6936 43.104C81.3176 43.728 81.9176 44.208 82.4936 44.544C83.1176 44.832 83.7416 45 84.3656 45.048C84.9896 45.096 85.6136 45.12 86.2376 45.12L86.5976 45.408L86.8136 48.144L86.6696 48.432C86.3336 48.432 85.8296 48.408 85.1576 48.36C84.4856 48.312 83.7896 48.264 83.0696 48.216C82.3496 48.168 81.6536 48.12 80.9816 48.072C80.3576 48.024 79.8776 48 79.5416 48H74.2856C73.9496 48 73.3976 48.024 72.6296 48.072C71.8616 48.12 71.0456 48.168 70.1816 48.216C69.3656 48.264 68.5736 48.312 67.8056 48.36C67.0376 48.408 66.4856 48.432 66.1496 48.432L66.0056 48.144L66.2216 45.408L66.5096 45.12C67.7576 45.12 68.6936 44.976 69.3176 44.688C69.9896 44.352 70.3256 43.488 70.3256 42.096C70.3256 41.328 70.1816 40.248 69.8936 38.856C69.6536 37.416 69.0536 35.64 68.0936 33.528L66.5816 30.072H53.9816L52.5416 33.528C51.6776 35.64 51.0296 37.44 50.5976 38.928C50.1656 40.416 49.9496 41.472 49.9496 42.096C49.9496 43.248 50.1896 44.04 50.6696 44.472C51.1496 44.904 52.0136 45.12 53.2616 45.12L53.6216 45.408L53.8376 48.144L53.6936 48.432C53.3576 48.432 52.8296 48.408 52.1096 48.36C51.3896 48.312 50.6216 48.264 49.8056 48.216C49.0376 48.168 48.2936 48.12 47.5736 48.072C46.8536 48.024 46.3256 48 45.9896 48H41.7416C41.4056 48 40.9016 48.024 40.2296 48.072C39.5576 48.12 38.8616 48.168 38.1416 48.216C37.4216 48.264 36.7256 48.312 36.0536 48.36C35.4296 48.408 34.9496 48.432 34.6136 48.432L34.5416 48.144L34.6856 45.408L35.0456 45.12C35.6696 45.12 36.2936 45.072 36.9176 44.976C37.5416 44.88 38.1656 44.664 38.7896 44.328C39.4136 43.992 40.0136 43.536 40.5896 42.96C41.2136 42.336 41.8376 41.544 42.4616 40.584C42.6056 40.296 42.8216 39.864 43.1096 39.288C43.3976 38.664 43.8536 37.584 44.4776 36.048C45.1016 34.512 45.9656 32.328 47.0696 29.496C48.1736 26.664 49.6376 22.896 51.4616 18.192L57.6536 2.28L62.7656 0.119998H63.5576ZM55.2056 24.816H64.6376L60.0296 12.072L55.2056 24.816ZM139.83 11.496C139.686 10.44 139.23 9.552 138.462 8.832C137.694 8.064 136.734 7.464 135.582 7.032C134.478 6.6 133.23 6.288 131.838 6.096C130.494 5.904 129.15 5.808 127.806 5.808C123.534 5.808 120.222 6.888 117.87 9.048C116.046 10.68 114.726 12.864 113.91 15.6C113.094 18.288 112.686 21.216 112.686 24.384C112.686 27.408 113.094 30.072 113.91 32.376C114.774 34.68 115.926 36.624 117.366 38.208C118.854 39.744 120.606 40.92 122.622 41.736C124.638 42.504 126.846 42.888 129.246 42.888C131.31 42.888 133.686 42.672 136.374 42.24C139.11 41.76 141.678 40.872 144.078 39.576L144.942 41.16L143.214 44.328C140.718 45.864 138.198 46.992 135.654 47.712C133.158 48.432 130.59 48.792 127.95 48.792C124.35 48.792 121.086 48.216 118.158 47.064C115.23 45.912 112.71 44.28 110.598 42.168C108.534 40.008 106.926 37.464 105.774 34.536C104.622 31.56 104.046 28.272 104.046 24.672C104.046 21.312 104.55 18.144 105.558 15.168C106.614 12.144 108.15 9.528 110.166 7.32C112.23 5.112 114.75 3.36 117.726 2.064C120.75 0.767999 124.254 0.119998 128.238 0.119998C129.198 0.119998 130.326 0.167998 131.622 0.263997C132.918 0.311996 134.286 0.455997 135.726 0.696C137.166 0.887997 138.606 1.2 140.046 1.632C141.534 2.016 142.95 2.52 144.294 3.144L144.51 3.792L143.574 11.784H140.046L139.83 11.496ZM175.355 0.119998L187.739 32.808C188.171 34.008 188.555 35.016 188.891 35.832C189.227 36.648 189.491 37.344 189.683 37.92C189.923 38.496 190.115 38.976 190.259 39.36C190.451 39.696 190.619 40.008 190.763 40.296C191.339 41.496 191.915 42.432 192.491 43.104C193.115 43.728 193.715 44.208 194.291 44.544C194.915 44.832 195.539 45 196.163 45.048C196.787 45.096 197.411 45.12 198.035 45.12L198.395 45.408L198.611 48.144L198.467 48.432C198.131 48.432 197.627 48.408 196.955 48.36C196.283 48.312 195.587 48.264 194.867 48.216C194.147 48.168 193.451 48.12 192.779 48.072C192.155 48.024 191.675 48 191.339 48H186.083C185.747 48 185.195 48.024 184.427 48.072C183.659 48.12 182.843 48.168 181.979 48.216C181.163 48.264 180.371 48.312 179.603 48.36C178.835 48.408 178.283 48.432 177.947 48.432L177.803 48.144L178.019 45.408L178.307 45.12C179.555 45.12 180.491 44.976 181.115 44.688C181.787 44.352 182.123 43.488 182.123 42.096C182.123 41.328 181.979 40.248 181.691 38.856C181.451 37.416 180.851 35.64 179.891 33.528L178.379 30.072H165.779L164.339 33.528C163.475 35.64 162.827 37.44 162.395 38.928C161.963 40.416 161.747 41.472 161.747 42.096C161.747 43.248 161.987 44.04 162.467 44.472C162.947 44.904 163.811 45.12 165.059 45.12L165.419 45.408L165.635 48.144L165.491 48.432C165.155 48.432 164.627 48.408 163.907 48.36C163.187 48.312 162.419 48.264 161.603 48.216C160.835 48.168 160.091 48.12 159.371 48.072C158.651 48.024 158.123 48 157.787 48H153.539C153.203 48 152.699 48.024 152.027 48.072C151.355 48.12 150.659 48.168 149.938 48.216C149.219 48.264 148.523 48.312 147.851 48.36C147.226 48.408 146.746 48.432 146.41 48.432L146.338 48.144L146.482 45.408L146.842 45.12C147.466 45.12 148.091 45.072 148.715 44.976C149.339 44.88 149.963 44.664 150.587 44.328C151.211 43.992 151.811 43.536 152.387 42.96C153.011 42.336 153.635 41.544 154.259 40.584C154.403 40.296 154.619 39.864 154.907 39.288C155.195 38.664 155.651 37.584 156.275 36.048C156.899 34.512 157.763 32.328 158.867 29.496C159.971 26.664 161.435 22.896 163.259 18.192L169.451 2.28L174.563 0.119998H175.355ZM167.003 24.816H176.435L171.827 12.072L167.003 24.816ZM221.306 48.432C220.922 48.384 220.37 48.336 219.65 48.288C218.978 48.24 218.234 48.192 217.418 48.144C216.65 48.096 215.882 48.048 215.114 48C214.394 48 213.77 48 213.242 48H208.994C208.418 48 207.746 48 206.978 48C206.21 48.048 205.442 48.096 204.674 48.144C203.906 48.192 203.162 48.24 202.442 48.288C201.77 48.336 201.266 48.384 200.93 48.432L200.786 48.144L201.002 45.408L201.362 45.12C203.186 45.12 204.434 44.904 205.106 44.472C206.114 43.8 206.738 42.408 206.978 40.296C207.026 39.48 207.05 38.232 207.05 36.552C207.098 34.824 207.122 33.096 207.122 31.368V15.528C207.122 13.848 207.098 12.528 207.05 11.568C207.002 10.56 206.93 9.576 206.834 8.616C206.642 7.32 206.426 6.384 206.186 5.808C205.994 5.232 205.682 4.776 205.25 4.44C204.866 4.2 204.386 4.032 203.81 3.936C203.282 3.84 202.466 3.792 201.362 3.792L201.002 3.504L200.786 0.767999L200.93 0.479998C202.178 0.623999 203.402 0.743999 204.602 0.839998C205.85 0.887997 206.834 0.911997 207.554 0.911997H213.026C214.13 0.911997 215.378 0.887997 216.77 0.839998C218.21 0.791998 219.458 0.767999 220.514 0.767999C226.226 0.767999 230.546 1.848 233.474 4.008C236.402 6.12 237.866 9.288 237.866 13.512C237.866 16.536 236.978 19.296 235.202 21.792C233.474 24.24 230.882 26.376 227.426 28.2C229.058 30.648 230.426 32.64 231.53 34.176C232.682 35.712 233.666 36.936 234.482 37.848C235.586 39.144 236.618 40.224 237.578 41.088C238.538 41.952 239.474 42.672 240.386 43.248C241.346 43.824 242.33 44.256 243.338 44.544C244.346 44.832 245.474 45.024 246.722 45.12L247.154 45.408L247.298 48.144L247.154 48.432C245.33 48.528 243.746 48.6 242.402 48.648C241.058 48.744 240.074 48.792 239.45 48.792C236.906 48.792 234.626 48.096 232.61 46.704C230.642 45.264 228.53 42.84 226.274 39.432C225.746 38.664 225.17 37.8 224.546 36.84C223.97 35.88 223.37 34.944 222.746 34.032C222.17 33.072 221.618 32.16 221.09 31.296C220.562 30.432 220.13 29.688 219.794 29.064H215.114C215.114 30.696 215.114 32.112 215.114 33.312C215.114 34.464 215.114 35.472 215.114 36.336C215.162 37.2 215.21 37.944 215.258 38.568C215.306 39.192 215.354 39.768 215.402 40.296C215.594 42.504 216.122 43.896 216.986 44.472C217.322 44.712 217.754 44.88 218.282 44.976C218.81 45.072 219.698 45.12 220.946 45.12L221.234 45.408L221.45 48.144L221.306 48.432ZM218.786 23.736C222.29 23.736 225.026 22.896 226.994 21.216C229.01 19.536 230.018 17.208 230.018 14.232C230.018 11.544 229.13 9.6 227.354 8.4C225.578 7.152 222.746 6.528 218.858 6.528H215.474C215.33 8.448 215.234 9.936 215.186 10.992C215.138 12.048 215.114 13.056 215.114 14.016V21.072C215.114 22.08 215.234 22.776 215.474 23.16C215.714 23.544 216.17 23.736 216.842 23.736H218.786ZM273.511 0.119998L285.895 32.808C286.327 34.008 286.711 35.016 287.047 35.832C287.383 36.648 287.647 37.344 287.839 37.92C288.079 38.496 288.271 38.976 288.415 39.36C288.607 39.696 288.775 40.008 288.919 40.296C289.495 41.496 290.071 42.432 290.647 43.104C291.271 43.728 291.871 44.208 292.447 44.544C293.071 44.832 293.695 45 294.319 45.048C294.943 45.096 295.567 45.12 296.191 45.12L296.551 45.408L296.767 48.144L296.623 48.432C296.287 48.432 295.783 48.408 295.111 48.36C294.439 48.312 293.743 48.264 293.023 48.216C292.303 48.168 291.607 48.12 290.935 48.072C290.311 48.024 289.831 48 289.495 48H284.239C283.903 48 283.351 48.024 282.583 48.072C281.815 48.12 280.999 48.168 280.135 48.216C279.319 48.264 278.527 48.312 277.759 48.36C276.991 48.408 276.439 48.432 276.103 48.432L275.959 48.144L276.175 45.408L276.463 45.12C277.711 45.12 278.647 44.976 279.271 44.688C279.943 44.352 280.279 43.488 280.279 42.096C280.279 41.328 280.135 40.248 279.847 38.856C279.607 37.416 279.007 35.64 278.047 33.528L276.535 30.072H263.935L262.495 33.528C261.631 35.64 260.983 37.44 260.551 38.928C260.119 40.416 259.903 41.472 259.903 42.096C259.903 43.248 260.143 44.04 260.623 44.472C261.103 44.904 261.967 45.12 263.215 45.12L263.575 45.408L263.791 48.144L263.647 48.432C263.311 48.432 262.783 48.408 262.063 48.36C261.343 48.312 260.575 48.264 259.759 48.216C258.991 48.168 258.247 48.12 257.527 48.072C256.807 48.024 256.279 48 255.943 48H251.695C251.359 48 250.855 48.024 250.183 48.072C249.511 48.12 248.815 48.168 248.095 48.216C247.375 48.264 246.679 48.312 246.007 48.36C245.383 48.408 244.903 48.432 244.567 48.432L244.495 48.144L244.639 45.408L244.999 45.12C245.623 45.12 246.247 45.072 246.871 44.976C247.495 44.88 248.119 44.664 248.743 44.328C249.367 43.992 249.967 43.536 250.543 42.96C251.167 42.336 251.791 41.544 252.415 40.584C252.559 40.296 252.775 39.864 253.063 39.288C253.351 38.664 253.807 37.584 254.431 36.048C255.055 34.512 255.919 32.328 257.023 29.496C258.127 26.664 259.591 22.896 261.415 18.192L267.607 2.28L272.719 0.119998H273.511ZM265.159 24.816H274.591L269.983 12.072L265.159 24.816ZM312.242 48.792L301.01 17.544C300.482 16.104 300.026 14.904 299.642 13.944C299.306 12.984 298.994 12.168 298.706 11.496C298.466 10.824 298.25 10.272 298.058 9.84C297.866 9.408 297.698 9 297.554 8.616C297.026 7.416 296.474 6.504 295.898 5.88C295.37 5.208 294.818 4.728 294.242 4.44C293.666 4.104 293.066 3.912 292.442 3.864C291.866 3.816 291.266 3.792 290.642 3.792L290.282 3.504L290.138 0.767999L290.21 0.479998C290.546 0.527997 291.026 0.575997 291.65 0.623996C292.322 0.671999 293.018 0.719999 293.738 0.767999C294.458 0.815998 295.154 0.863997 295.826 0.911997C296.498 0.911997 297.002 0.911997 297.338 0.911997H302.666C303.002 0.911997 303.554 0.887997 304.322 0.839998C305.09 0.791998 305.882 0.743999 306.698 0.696C307.562 0.647997 308.378 0.599997 309.146 0.551997C309.914 0.503998 310.466 0.479998 310.802 0.479998L310.946 0.767999L310.73 3.504L310.37 3.792C308.978 3.792 307.898 3.96 307.13 4.296C306.362 4.584 305.978 5.424 305.978 6.816C305.978 7.92 306.338 9.48 307.058 11.496C307.826 13.464 308.762 15.96 309.866 18.984L314.258 30.792C315.074 32.712 315.746 34.56 316.274 36.336C316.802 38.064 317.33 39.504 317.858 40.656C318.242 39.552 318.77 38.16 319.442 36.48C320.114 34.752 320.834 32.856 321.602 30.792L325.994 18.984C327.098 15.96 328.01 13.464 328.73 11.496C329.498 9.48 329.882 7.92 329.882 6.816C329.882 5.424 329.498 4.584 328.73 4.296C327.962 3.96 326.882 3.792 325.49 3.792L325.13 3.504L324.986 0.767999L325.13 0.479998C325.466 0.527997 325.994 0.575997 326.714 0.623996C327.434 0.671999 328.178 0.719999 328.946 0.767999C329.714 0.815998 330.458 0.863997 331.178 0.911997C331.898 0.911997 332.426 0.911997 332.762 0.911997H337.01C337.346 0.911997 337.826 0.887997 338.45 0.839998C339.122 0.791998 339.818 0.743999 340.538 0.696C341.258 0.647997 341.954 0.599997 342.626 0.551997C343.298 0.503998 343.802 0.479998 344.138 0.479998L344.282 0.767999L344.066 3.504L343.706 3.792C343.082 3.792 342.482 3.816 341.906 3.864C341.33 3.912 340.754 4.104 340.178 4.44C339.65 4.728 339.098 5.208 338.522 5.88C337.994 6.504 337.442 7.416 336.866 8.616C336.77 8.856 336.65 9.096 336.506 9.336C336.41 9.576 336.242 9.96 336.002 10.488C335.81 10.968 335.522 11.664 335.138 12.576C334.754 13.488 334.25 14.736 333.626 16.32C333.002 17.856 332.21 19.8 331.25 22.152C330.338 24.504 329.234 27.36 327.938 30.72C327.266 32.4 326.57 34.152 325.85 35.976C325.13 37.752 324.458 39.456 323.834 41.088C323.21 42.672 322.658 44.088 322.178 45.336C321.698 46.584 321.362 47.472 321.17 48L313.106 48.792H312.242ZM365.69 0.119998L378.074 32.808C378.506 34.008 378.89 35.016 379.226 35.832C379.562 36.648 379.826 37.344 380.018 37.92C380.258 38.496 380.45 38.976 380.594 39.36C380.786 39.696 380.954 40.008 381.098 40.296C381.674 41.496 382.25 42.432 382.826 43.104C383.45 43.728 384.05 44.208 384.626 44.544C385.25 44.832 385.874 45 386.498 45.048C387.122 45.096 387.746 45.12 388.37 45.12L388.73 45.408L388.946 48.144L388.802 48.432C388.466 48.432 387.962 48.408 387.29 48.36C386.618 48.312 385.922 48.264 385.202 48.216C384.482 48.168 383.786 48.12 383.114 48.072C382.49 48.024 382.01 48 381.674 48H376.418C376.082 48 375.53 48.024 374.762 48.072C373.994 48.12 373.178 48.168 372.314 48.216C371.498 48.264 370.706 48.312 369.938 48.36C369.17 48.408 368.618 48.432 368.282 48.432L368.138 48.144L368.354 45.408L368.642 45.12C369.89 45.12 370.826 44.976 371.45 44.688C372.122 44.352 372.458 43.488 372.458 42.096C372.458 41.328 372.314 40.248 372.026 38.856C371.786 37.416 371.186 35.64 370.226 33.528L368.714 30.072H356.114L354.674 33.528C353.81 35.64 353.162 37.44 352.73 38.928C352.298 40.416 352.082 41.472 352.082 42.096C352.082 43.248 352.322 44.04 352.802 44.472C353.282 44.904 354.146 45.12 355.394 45.12L355.754 45.408L355.97 48.144L355.826 48.432C355.49 48.432 354.962 48.408 354.242 48.36C353.522 48.312 352.754 48.264 351.938 48.216C351.17 48.168 350.426 48.12 349.706 48.072C348.986 48.024 348.458 48 348.122 48H343.874C343.538 48 343.034 48.024 342.362 48.072C341.69 48.12 340.994 48.168 340.274 48.216C339.554 48.264 338.858 48.312 338.186 48.36C337.562 48.408 337.082 48.432 336.746 48.432L336.674 48.144L336.818 45.408L337.178 45.12C337.802 45.12 338.426 45.072 339.05 44.976C339.674 44.88 340.298 44.664 340.922 44.328C341.546 43.992 342.146 43.536 342.722 42.96C343.346 42.336 343.97 41.544 344.594 40.584C344.738 40.296 344.954 39.864 345.242 39.288C345.53 38.664 345.986 37.584 346.61 36.048C347.234 34.512 348.098 32.328 349.202 29.496C350.306 26.664 351.77 22.896 353.594 18.192L359.786 2.28L364.898 0.119998H365.69ZM357.338 24.816H366.77L362.162 12.072L357.338 24.816ZM442.458 0.767999L442.314 3.504L441.954 3.792C441.234 3.792 440.514 3.84 439.794 3.936C439.122 3.984 438.57 4.176 438.138 4.512C437.754 4.848 437.346 5.28 436.914 5.808C436.53 6.336 436.266 7.272 436.122 8.616C436.074 9.288 436.026 9.912 435.978 10.488C435.978 11.064 435.954 11.736 435.906 12.504C435.906 13.272 435.906 14.208 435.906 15.312C435.906 16.416 435.906 17.832 435.906 19.56V30.792C435.906 33.48 435.906 35.688 435.906 37.416C435.954 39.144 435.978 40.632 435.978 41.88C436.026 43.08 436.074 44.16 436.122 45.12C436.218 46.08 436.314 47.136 436.41 48.288L435.834 48.648L426.978 48.288L426.258 47.424L404.01 13.872C404.106 14.736 404.154 16.128 404.154 18.048C404.202 19.92 404.226 22.104 404.226 24.6V29.928C404.226 30.504 404.226 31.272 404.226 32.232C404.226 33.144 404.226 34.104 404.226 35.112C404.274 36.12 404.298 37.104 404.298 38.064C404.346 38.976 404.394 39.72 404.442 40.296C404.538 41.496 404.802 42.408 405.234 43.032C405.666 43.656 406.122 44.112 406.602 44.4C406.986 44.784 407.49 45 408.114 45.048C408.738 45.096 409.53 45.12 410.49 45.12L410.85 45.408L411.066 48.144L410.922 48.432C410.538 48.432 409.986 48.408 409.266 48.36C408.594 48.312 407.874 48.264 407.106 48.216C406.386 48.168 405.666 48.12 404.946 48.072C404.274 48.024 403.77 48 403.434 48H399.186C398.85 48 398.298 48.024 397.53 48.072C396.762 48.12 395.97 48.168 395.154 48.216C394.338 48.264 393.546 48.312 392.778 48.36C392.01 48.408 391.458 48.432 391.122 48.432L390.978 48.144L391.194 45.408L391.554 45.12C392.418 45.12 393.138 45.096 393.714 45.048C394.338 44.952 394.89 44.736 395.37 44.4C395.706 44.16 396.114 43.776 396.594 43.248C397.074 42.672 397.386 41.688 397.53 40.296C397.578 39.96 397.602 39.576 397.602 39.144C397.65 38.664 397.674 38.088 397.674 37.416C397.674 36.744 397.674 35.928 397.674 34.968C397.674 34.008 397.674 32.808 397.674 31.368V19.632C397.674 17.952 397.674 16.536 397.674 15.384C397.674 14.232 397.674 13.248 397.674 12.432C397.674 11.616 397.65 10.92 397.602 10.344C397.602 9.768 397.578 9.192 397.53 8.616C397.434 7.608 397.146 6.744 396.666 6.024C396.234 5.304 395.802 4.8 395.37 4.512C394.938 4.128 394.386 3.912 393.714 3.864C393.09 3.816 392.37 3.792 391.554 3.792L391.194 3.504L390.978 0.767999L391.122 0.479998C391.458 0.479998 391.938 0.503998 392.562 0.551997C393.234 0.599997 393.906 0.647997 394.578 0.696C395.25 0.743999 395.898 0.791998 396.522 0.839998C397.194 0.887997 397.698 0.911997 398.034 0.911997H404.154C404.538 0.911997 405.018 0.887997 405.594 0.839998C406.17 0.791998 406.674 0.719998 407.106 0.623996L407.466 0.839998C407.61 1.512 407.97 2.448 408.546 3.648C409.122 4.8 409.818 6.12 410.634 7.608C411.498 9.048 412.41 10.584 413.37 12.216C414.33 13.8 415.29 15.384 416.25 16.968C417.978 19.848 419.514 22.368 420.858 24.528C422.202 26.64 423.402 28.488 424.458 30.072C425.514 31.656 426.426 33 427.194 34.104C427.962 35.16 428.61 36.048 429.138 36.768C429.138 35.52 429.138 34.296 429.138 33.096C429.186 31.896 429.21 30.672 429.21 29.424V19.632C429.21 17.952 429.21 16.536 429.21 15.384C429.21 14.232 429.186 13.248 429.138 12.432C429.138 11.616 429.114 10.92 429.066 10.344C429.066 9.768 429.042 9.192 428.994 8.616C428.898 7.8 428.682 7.056 428.346 6.384C428.058 5.664 427.578 5.04 426.906 4.512C426.474 4.128 425.898 3.912 425.178 3.864C424.506 3.816 423.786 3.792 423.018 3.792L422.73 3.504L422.514 0.767999L422.658 0.479998C422.994 0.479998 423.474 0.503998 424.098 0.551997C424.722 0.599997 425.346 0.647997 425.97 0.696C426.642 0.743999 427.29 0.791998 427.914 0.839998C428.538 0.887997 429.018 0.911997 429.354 0.911997H435.618C435.954 0.911997 436.434 0.911997 437.058 0.911997C437.682 0.863997 438.33 0.815998 439.002 0.767999C439.674 0.719999 440.322 0.671999 440.946 0.623996C441.57 0.575997 442.05 0.527997 442.386 0.479998L442.458 0.767999ZM471.792 0.119998L484.176 32.808C484.608 34.008 484.992 35.016 485.328 35.832C485.664 36.648 485.928 37.344 486.12 37.92C486.36 38.496 486.552 38.976 486.696 39.36C486.888 39.696 487.056 40.008 487.2 40.296C487.776 41.496 488.352 42.432 488.928 43.104C489.552 43.728 490.152 44.208 490.728 44.544C491.352 44.832 491.976 45 492.6 45.048C493.224 45.096 493.848 45.12 494.472 45.12L494.832 45.408L495.048 48.144L494.904 48.432C494.568 48.432 494.064 48.408 493.392 48.36C492.72 48.312 492.024 48.264 491.304 48.216C490.584 48.168 489.888 48.12 489.216 48.072C488.592 48.024 488.112 48 487.776 48H482.52C482.184 48 481.632 48.024 480.864 48.072C480.096 48.12 479.28 48.168 478.416 48.216C477.6 48.264 476.808 48.312 476.04 48.36C475.272 48.408 474.72 48.432 474.384 48.432L474.24 48.144L474.456 45.408L474.744 45.12C475.992 45.12 476.928 44.976 477.552 44.688C478.224 44.352 478.56 43.488 478.56 42.096C478.56 41.328 478.416 40.248 478.128 38.856C477.888 37.416 477.288 35.64 476.328 33.528L474.816 30.072H462.216L460.776 33.528C459.912 35.64 459.264 37.44 458.832 38.928C458.4 40.416 458.184 41.472 458.184 42.096C458.184 43.248 458.424 44.04 458.904 44.472C459.384 44.904 460.248 45.12 461.496 45.12L461.856 45.408L462.072 48.144L461.928 48.432C461.592 48.432 461.064 48.408 460.344 48.36C459.624 48.312 458.856 48.264 458.04 48.216C457.272 48.168 456.528 48.12 455.808 48.072C455.088 48.024 454.56 48 454.224 48H449.976C449.64 48 449.136 48.024 448.464 48.072C447.792 48.12 447.096 48.168 446.376 48.216C445.656 48.264 444.96 48.312 444.288 48.36C443.664 48.408 443.184 48.432 442.848 48.432L442.776 48.144L442.92 45.408L443.28 45.12C443.904 45.12 444.528 45.072 445.152 44.976C445.776 44.88 446.4 44.664 447.024 44.328C447.648 43.992 448.248 43.536 448.824 42.96C449.448 42.336 450.072 41.544 450.696 40.584C450.84 40.296 451.056 39.864 451.344 39.288C451.632 38.664 452.088 37.584 452.712 36.048C453.336 34.512 454.2 32.328 455.304 29.496C456.408 26.664 457.872 22.896 459.696 18.192L465.888 2.28L471 0.119998H471.792ZM463.44 24.816H472.872L468.264 12.072L463.44 24.816Z" fill="white"/>
</svg>
