<svg width="174" height="41" viewBox="0 0 174 41" fill="none" xmlns="http://www.w3.org/2000/svg">
<path d="M51.1978 40.36C50.9178 40.36 50.4578 40.34 49.8178 40.3C49.1778 40.26 48.5178 40.22 47.8378 40.18C47.1578 40.14 46.4978 40.1 45.8578 40.06C45.2178 40.02 44.7578 40 44.4778 40H43.3378C43.0578 40 42.5978 40.02 41.9578 40.06C41.3178 40.1 40.6578 40.14 39.9778 40.18C39.2978 40.22 38.6378 40.26 37.9978 40.3C37.3578 40.34 36.8978 40.36 36.6178 40.36L36.4378 40.12L36.6178 39.04L36.8578 38.8C37.4978 38.8 38.0978 38.78 38.6578 38.74C39.2578 38.66 39.7178 38.48 40.0378 38.2C40.3178 37.92 40.5778 37.56 40.8178 37.12C41.0978 36.68 41.2378 35.9 41.2378 34.78C41.2378 34.5 41.2378 34.18 41.2378 33.82C41.2378 33.42 41.2178 32.94 41.1778 32.38C41.1778 31.82 41.1578 31.14 41.1178 30.34C41.0778 29.54 41.0178 28.54 40.9378 27.34C40.6178 23.14 40.3578 19.8 40.1578 17.32C39.9978 14.8 39.8578 12.84 39.7378 11.44C39.6178 10.04 39.5178 9.04 39.4378 8.44C39.3978 7.84 39.3578 7.34 39.3178 6.94C39.0378 7.66 38.5978 8.78 37.9978 10.3C37.3978 11.78 36.6978 13.5 35.8978 15.46C35.1378 17.38 34.3178 19.44 33.4378 21.64C32.5578 23.84 31.6778 26.02 30.7978 28.18C29.9578 30.34 29.1378 32.38 28.3378 34.3C27.5778 36.22 26.9178 37.86 26.3578 39.22H23.5378L11.5378 7.06C11.4978 7.46 11.4578 7.88 11.4178 8.32C11.3778 8.76 11.3378 9.3 11.2978 9.94C11.2578 10.54 11.1978 11.26 11.1178 12.1C11.0778 12.9 11.0178 13.9 10.9378 15.1L10.0978 26.14C9.97781 27.5 9.89781 28.62 9.85781 29.5C9.81781 30.38 9.77781 31.14 9.73781 31.78C9.69781 32.42 9.67781 32.96 9.67781 33.4C9.67781 33.84 9.67781 34.3 9.67781 34.78C9.67781 35.9 9.79781 36.68 10.0378 37.12C10.3178 37.56 10.6178 37.92 10.9378 38.2C11.2578 38.48 11.6178 38.66 12.0178 38.74C12.4578 38.78 12.9978 38.8 13.6378 38.8L13.8778 39.04L14.0578 40.12L13.9378 40.36C13.6578 40.36 13.2378 40.34 12.6778 40.3C12.1578 40.26 11.6178 40.22 11.0578 40.18C10.4978 40.14 9.93781 40.1 9.37781 40.06C8.85781 40.02 8.45781 40 8.17781 40H7.03781C6.75781 40 6.29781 40.02 5.65781 40.06C5.05781 40.1 4.39781 40.14 3.67781 40.18C2.99781 40.22 2.33781 40.26 1.69781 40.3C1.09781 40.34 0.657813 40.36 0.377813 40.36L0.257813 40.12L0.437813 39.04L0.797813 38.8C1.39781 38.8 1.97781 38.78 2.53781 38.74C3.09781 38.66 3.57781 38.48 3.97781 38.2C4.29781 37.92 4.61781 37.56 4.93781 37.12C5.29781 36.68 5.55781 35.9 5.71781 34.78C5.75781 34.5 5.79781 34.18 5.83781 33.82C5.87781 33.42 5.91781 32.94 5.95781 32.38C6.03781 31.82 6.11781 31.14 6.19781 30.34C6.27781 29.54 6.35781 28.54 6.43781 27.34L7.27781 15.16C7.39781 13.76 7.47781 12.58 7.51781 11.62C7.59781 10.66 7.63781 9.84 7.63781 9.16C7.67781 8.48 7.69781 7.9 7.69781 7.42C7.73781 6.94 7.75781 6.46 7.75781 5.98C7.75781 4.86 7.57781 4.08 7.21781 3.64C6.89781 3.16 6.57781 2.8 6.25781 2.56C5.89781 2.28 5.43781 2.12 4.87781 2.08C4.31781 2 3.71781 1.96 3.07781 1.96L2.77781 1.72L2.59781 0.639999L2.71781 0.399998C2.99781 0.399998 3.45781 0.419998 4.09781 0.459998C4.73781 0.499997 5.39781 0.539998 6.07781 0.58C6.75781 0.619999 7.41781 0.659999 8.05781 0.699998C8.69781 0.739998 9.15781 0.759997 9.43781 0.759997H11.5378C11.8578 0.759997 12.2978 0.739998 12.8578 0.699998C13.4578 0.659999 13.9378 0.599998 14.2978 0.519997L14.5978 0.699998C14.6378 1.22 14.7778 1.92 15.0178 2.8C15.2978 3.64 15.6178 4.6 15.9778 5.68C16.3778 6.76 16.7978 7.92 17.2378 9.16C17.6778 10.36 18.1178 11.56 18.5578 12.76L22.6378 23.86C23.3178 25.78 23.9378 27.42 24.4978 28.78C25.0578 30.1 25.5578 31.28 25.9978 32.32C26.1178 32.12 26.4578 31.36 27.0178 30.04C27.5778 28.68 28.2578 27.02 29.0578 25.06C29.8978 23.06 30.7778 20.88 31.6978 18.52C32.6178 16.16 33.4978 13.86 34.3378 11.62C35.1778 9.34 35.8978 7.24 36.4978 5.32C37.0978 3.4 37.4778 1.88 37.6378 0.759997L37.9378 0.519997C38.2578 0.599998 38.5978 0.659999 38.9578 0.699998C39.3178 0.739998 39.6578 0.759997 39.9778 0.759997H42.1378C42.4178 0.759997 42.8778 0.739998 43.5178 0.699998C44.1578 0.659999 44.8178 0.619999 45.4978 0.58C46.1778 0.539998 46.8378 0.499997 47.4778 0.459998C48.1178 0.419998 48.5778 0.399998 48.8578 0.399998L48.9778 0.639999L48.7978 1.72L48.4978 1.96C47.8578 1.96 47.2378 2 46.6378 2.08C46.0778 2.12 45.6378 2.28 45.3178 2.56C44.9978 2.8 44.6578 3.16 44.2978 3.64C43.9778 4.12 43.8178 4.9 43.8178 5.98C43.8178 6.54 43.8178 7.06 43.8178 7.54C43.8578 8.02 43.8778 8.58 43.8778 9.22C43.9178 9.86 43.9578 10.64 43.9978 11.56C44.0778 12.48 44.1778 13.66 44.2978 15.1L45.0178 26.14C45.1378 27.58 45.2178 28.76 45.2578 29.68C45.3378 30.56 45.3978 31.3 45.4378 31.9C45.5178 32.5 45.5778 33.02 45.6178 33.46C45.6978 33.86 45.7778 34.3 45.8578 34.78C46.0178 35.9 46.2578 36.68 46.5778 37.12C46.8978 37.56 47.2178 37.92 47.5378 38.2C47.8978 38.48 48.3578 38.66 48.9178 38.74C49.5178 38.78 50.1378 38.8 50.7778 38.8L51.0778 39.04L51.2578 40.12L51.1978 40.36ZM72.6998 0.759997C73.2198 0.759997 73.9998 0.759997 75.0398 0.759997C76.1198 0.719998 77.1998 0.679998 78.2798 0.639999C79.3598 0.599999 80.3198 0.58 81.1598 0.58C82.0398 0.539998 82.5798 0.519997 82.7798 0.519997L83.0798 1.12L82.8398 7.66H81.3398L81.0998 7.42C81.0198 6.5 80.8998 5.78 80.7398 5.26C80.6198 4.74 80.2198 4.36 79.5398 4.12C78.8998 3.88 77.9198 3.74 76.5998 3.7C75.2798 3.66 73.4198 3.64 71.0198 3.64H65.2598L65.1398 5.98C65.0998 6.62 65.0598 7.16 65.0198 7.6C65.0198 8.04 64.9998 8.58 64.9598 9.22C64.9598 9.86 64.9598 10.64 64.9598 11.56C64.9598 12.44 64.9598 14.6 64.9598 18.04C66.1598 18 67.3598 17.98 68.5598 17.98C69.7598 17.98 70.8398 17.96 71.7998 17.92C72.7998 17.88 73.6398 17.8 74.3198 17.68C74.9998 17.52 75.4598 17.3 75.6998 17.02C76.0198 16.7 76.2998 16.38 76.5398 16.06C76.7798 15.74 76.8998 15.28 76.8998 14.68L77.1998 14.38L78.2198 14.26L78.4598 14.38C78.3798 15.3 78.2998 16.1 78.2198 16.78C78.1798 17.46 78.1598 18.24 78.1598 19.12C78.1598 20.08 78.1798 20.98 78.2198 21.82C78.2998 22.62 78.3798 23.5 78.4598 24.46L78.2198 24.58L77.1398 24.46L76.8998 24.28C76.8998 23.64 76.7798 23.06 76.5398 22.54C76.2998 21.98 76.0198 21.52 75.6998 21.16C75.4598 20.92 74.9998 20.74 74.3198 20.62C73.6398 20.5 72.8198 20.42 71.8598 20.38C70.8998 20.34 69.8198 20.32 68.6198 20.32C67.4198 20.32 66.1998 20.32 64.9598 20.32V26.14C64.9598 27.58 64.9598 28.76 64.9598 29.68C64.9598 30.56 64.9598 31.36 64.9598 32.08C64.9998 32.76 65.0398 33.4 65.0798 34C65.1198 34.56 65.1798 35.22 65.2598 35.98C65.2598 36.74 65.6598 37.12 66.4598 37.12H71.5598C73.9598 37.12 75.8398 37.08 77.1998 37C78.5998 36.88 79.6598 36.66 80.3798 36.34C81.0998 36.02 81.5998 35.54 81.8798 34.9C82.1998 34.22 82.4998 33.34 82.7798 32.26L83.0198 32.02H84.5798L83.4998 39.64L83.0198 40.24C82.8198 40.24 82.3598 40.22 81.6398 40.18C80.9198 40.18 80.0998 40.16 79.1798 40.12C78.2998 40.08 77.3998 40.04 76.4798 40C75.5998 40 74.8998 40 74.3798 40H62.2598C61.9798 40 61.5198 40.02 60.8798 40.06C60.2398 40.1 59.5798 40.14 58.8998 40.18C58.2198 40.22 57.5598 40.26 56.9198 40.3C56.2798 40.34 55.8198 40.36 55.5398 40.36L55.4198 40.12L55.5998 39.04L55.8998 38.8C56.5398 38.8 57.1398 38.78 57.6998 38.74C58.2598 38.66 58.7198 38.48 59.0798 38.2C59.3998 37.92 59.6998 37.56 59.9798 37.12C60.2998 36.68 60.4998 35.9 60.5798 34.78C60.5798 34.5 60.5798 34.18 60.5798 33.82C60.6198 33.42 60.6398 32.94 60.6398 32.38C60.6798 31.82 60.6998 31.14 60.6998 30.34C60.6998 29.54 60.6998 28.54 60.6998 27.34V15.16C60.6998 13.76 60.6998 12.58 60.6998 11.62C60.6998 10.66 60.6998 9.84 60.6998 9.16C60.6998 8.48 60.6798 7.9 60.6398 7.42C60.6398 6.94 60.6198 6.46 60.5798 5.98C60.4998 4.9 60.2998 4.14 59.9798 3.7C59.6998 3.22 59.3998 2.84 59.0798 2.56C58.7198 2.28 58.2598 2.12 57.6998 2.08C57.1398 2 56.5398 1.96 55.8998 1.96L55.5998 1.72L55.4198 0.639999L55.5398 0.399998C55.8198 0.399998 56.2798 0.419998 56.9198 0.459998C57.5598 0.499997 58.2398 0.539998 58.9598 0.58C59.7198 0.619999 60.4398 0.659999 61.1198 0.699998C61.8398 0.739998 62.4198 0.759997 62.8598 0.759997H72.6998ZM129.597 0.639999L129.477 1.72L129.177 1.96C128.537 1.96 127.917 2 127.317 2.08C126.757 2.12 126.317 2.28 125.997 2.56C125.677 2.84 125.377 3.2 125.097 3.64C124.857 4.08 124.697 4.86 124.617 5.98C124.577 6.54 124.537 7.06 124.497 7.54C124.497 8.02 124.477 8.58 124.437 9.22C124.437 9.86 124.437 10.64 124.437 11.56C124.437 12.48 124.437 13.66 124.437 15.1V25.66C124.437 27.9 124.437 29.74 124.437 31.18C124.477 32.62 124.497 33.86 124.497 34.9C124.537 35.9 124.577 36.8 124.617 37.6C124.697 38.4 124.777 39.28 124.857 40.24L124.377 40.54L120.657 40.3L120.057 39.58L98.6972 7.6C98.6972 8 98.6772 8.4 98.6372 8.8C98.6372 9.2 98.6372 9.7 98.6372 10.3C98.6372 10.86 98.6372 11.52 98.6372 12.28C98.6372 13.04 98.6372 13.98 98.6372 15.1V26.14C98.6372 26.62 98.6372 27.26 98.6372 28.06C98.6372 28.82 98.6372 29.62 98.6372 30.46C98.6772 31.3 98.6972 32.12 98.6972 32.92C98.7372 33.68 98.7772 34.3 98.8172 34.78C98.8972 35.78 99.0572 36.54 99.2972 37.06C99.5772 37.54 99.9172 37.92 100.317 38.2C100.637 38.44 101.057 38.6 101.577 38.68C102.097 38.76 102.757 38.8 103.557 38.8L103.857 39.04L104.037 40.12L103.917 40.36C103.637 40.36 103.197 40.34 102.597 40.3C102.037 40.26 101.437 40.22 100.797 40.18C100.157 40.14 99.5372 40.1 98.9372 40.06C98.3772 40.02 97.9572 40 97.6772 40H96.5372C96.2572 40 95.7972 40.02 95.1572 40.06C94.5172 40.1 93.8572 40.14 93.1772 40.18C92.4972 40.22 91.8372 40.26 91.1972 40.3C90.5572 40.34 90.0972 40.36 89.8172 40.36L89.6972 40.12L89.8772 39.04L90.1772 38.8C90.8972 38.8 91.4972 38.78 91.9772 38.74C92.4972 38.66 92.9572 38.48 93.3572 38.2C93.6372 38 93.9172 37.68 94.1972 37.24C94.5172 36.76 94.7372 35.94 94.8572 34.78C94.8972 34.5 94.9172 34.18 94.9172 33.82C94.9572 33.42 94.9772 32.94 94.9772 32.38C94.9772 31.82 94.9772 31.14 94.9772 30.34C94.9772 29.54 94.9772 28.54 94.9772 27.34V15.16C94.9772 13.76 94.9772 12.58 94.9772 11.62C94.9772 10.66 94.9772 9.84 94.9772 9.16C94.9772 8.48 94.9572 7.9 94.9172 7.42C94.9172 6.94 94.8972 6.46 94.8572 5.98C94.7772 5.14 94.5972 4.44 94.3172 3.88C94.0372 3.28 93.7172 2.84 93.3572 2.56C92.9972 2.28 92.5372 2.12 91.9772 2.08C91.4572 2 90.8572 1.96 90.1772 1.96L89.8772 1.72L89.6972 0.639999L89.8172 0.399998C90.0972 0.399998 90.4972 0.419998 91.0172 0.459998C91.5772 0.499997 92.1372 0.539998 92.6972 0.58C93.2572 0.619999 93.7972 0.659999 94.3172 0.699998C94.8772 0.739998 95.2972 0.759997 95.5772 0.759997H97.6772C97.9972 0.759997 98.4372 0.739998 98.9972 0.699998C99.5972 0.659999 100.077 0.599998 100.437 0.519997L100.737 0.699998C100.897 1.26 101.217 2.04 101.697 3.04C102.217 4 102.817 5.08 103.497 6.28C104.217 7.48 104.977 8.76 105.777 10.12C106.617 11.48 107.457 12.82 108.297 14.14C111.337 19.02 113.977 23 116.217 26.08C118.497 29.16 119.957 31.16 120.597 32.08C120.597 31.8 120.597 31.54 120.597 31.3C120.637 31.06 120.657 30.78 120.657 30.46C120.657 30.14 120.657 29.74 120.657 29.26C120.657 28.78 120.657 28.14 120.657 27.34V15.16C120.657 13.76 120.657 12.58 120.657 11.62C120.657 10.66 120.637 9.84 120.597 9.16C120.597 8.48 120.577 7.9 120.537 7.42C120.537 6.94 120.517 6.46 120.477 5.98C120.397 4.86 120.217 4.08 119.937 3.64C119.657 3.2 119.357 2.84 119.037 2.56C118.677 2.28 118.197 2.12 117.597 2.08C117.037 2 116.437 1.96 115.797 1.96L115.557 1.72L115.377 0.639999L115.497 0.399998C115.777 0.399998 116.177 0.419998 116.697 0.459998C117.217 0.499997 117.737 0.539998 118.257 0.58C118.817 0.619999 119.357 0.659999 119.877 0.699998C120.397 0.739998 120.797 0.759997 121.077 0.759997H123.897C124.177 0.759997 124.577 0.759997 125.097 0.759997C125.617 0.719998 126.157 0.679998 126.717 0.639999C127.277 0.599999 127.817 0.559999 128.337 0.519997C128.857 0.479997 129.257 0.439998 129.537 0.399998L129.597 0.639999ZM173.703 0.639999L173.523 1.72L173.283 1.96C172.643 1.96 172.023 2 171.423 2.08C170.863 2.12 170.403 2.28 170.043 2.56C169.723 2.84 169.423 3.2 169.143 3.64C168.863 4.08 168.683 4.86 168.603 5.98C168.563 6.46 168.523 6.94 168.483 7.42C168.483 7.9 168.463 8.48 168.423 9.16C168.423 9.84 168.423 10.66 168.423 11.62C168.423 12.58 168.423 13.76 168.423 15.16V26.68C168.423 28.64 168.123 30.48 167.523 32.2C166.963 33.88 166.083 35.36 164.883 36.64C163.683 37.88 162.163 38.86 160.323 39.58C158.523 40.3 156.403 40.66 153.963 40.66C151.163 40.66 148.783 40.3 146.823 39.58C144.903 38.86 143.343 37.88 142.143 36.64C140.943 35.36 140.063 33.88 139.503 32.2C138.983 30.48 138.723 28.64 138.723 26.68V15.16C138.723 13.76 138.723 12.58 138.723 11.62C138.723 10.66 138.723 9.84 138.723 9.16C138.723 8.48 138.703 7.9 138.663 7.42C138.663 6.94 138.643 6.46 138.603 5.98C138.523 4.9 138.323 4.14 138.003 3.7C137.723 3.22 137.423 2.84 137.103 2.56C136.743 2.28 136.283 2.12 135.723 2.08C135.163 2 134.563 1.96 133.923 1.96L133.623 1.72L133.443 0.639999L133.563 0.399998C133.843 0.399998 134.303 0.419998 134.943 0.459998C135.583 0.499997 136.243 0.539998 136.923 0.58C137.603 0.619999 138.263 0.659999 138.903 0.699998C139.543 0.739998 140.003 0.759997 140.283 0.759997H141.423C141.703 0.759997 142.163 0.739998 142.803 0.699998C143.443 0.659999 144.103 0.619999 144.783 0.58C145.463 0.539998 146.123 0.499997 146.763 0.459998C147.403 0.419998 147.863 0.399998 148.143 0.399998L148.263 0.639999L148.083 1.72L147.843 1.96C147.203 1.96 146.583 2 145.983 2.08C145.423 2.12 144.963 2.28 144.603 2.56C144.283 2.84 143.983 3.2 143.703 3.64C143.423 4.08 143.243 4.86 143.163 5.98C143.123 6.54 143.083 7.06 143.043 7.54C143.043 8.02 143.023 8.58 142.983 9.22C142.983 9.86 142.983 10.64 142.983 11.56C142.983 12.48 142.983 13.66 142.983 15.1V25C142.983 29.32 143.943 32.42 145.863 34.3C147.823 36.18 150.523 37.12 153.963 37.12C157.403 37.12 160.103 36.18 162.063 34.3C164.023 32.42 165.003 29.32 165.003 25V15.1C165.003 13.66 165.003 12.48 165.003 11.56C165.003 10.64 164.983 9.86 164.943 9.22C164.943 8.58 164.923 8.02 164.883 7.54C164.883 7.06 164.863 6.54 164.823 5.98C164.743 4.86 164.543 4.08 164.223 3.64C163.943 3.2 163.643 2.84 163.323 2.56C163.003 2.28 162.543 2.12 161.943 2.08C161.383 2 160.783 1.96 160.143 1.96L159.843 1.72L159.663 0.639999L159.783 0.399998C160.063 0.399998 160.483 0.419998 161.043 0.459998C161.603 0.499997 162.183 0.539998 162.783 0.58C163.423 0.619999 164.023 0.659999 164.583 0.699998C165.143 0.739998 165.563 0.759997 165.843 0.759997H167.163C167.443 0.759997 167.883 0.739998 168.483 0.699998C169.083 0.659999 169.703 0.619999 170.343 0.58C171.023 0.539998 171.663 0.499997 172.263 0.459998C172.863 0.419998 173.303 0.399998 173.583 0.399998L173.703 0.639999Z" fill="white"/>
</svg>
